<?xml version="1.0" encoding="UTF-8"?>
<svg width="32px" height="32px" viewBox="0 0 32 32" version="1.1" xmlns="http://www.w3.org/2000/svg" xmlns:xlink="http://www.w3.org/1999/xlink">
    <title>USDR_Logo</title>
    <g id="Business-Assistant-Flow" stroke="none" stroke-width="1" fill="none" fill-rule="evenodd">
        <g id="nav" transform="translate(-57.000000, -24.000000)" fill="#171717">
            <path d="M88.9999708,24 L88.9999708,56 L57,56 L57,51.9813907 L73.0743935,51.9813907 L73.0743935,50.1920707 L57,50.1920707 L57,48.8503067 L73.0743935,48.8503067 L73.0743935,47.0609867 L57,47.0609867 L57,45.7190696 L73.0743935,45.7190696 L73.0743935,43.9297496 L57,43.9297496 L57,24 L88.9999708,24 Z M69.6527902,28.4517209 C67.6851679,28.4517209 66.4569617,29.661919 66.4569617,31.6487445 C66.4569617,33.4862876 67.0512785,34.188354 68.0548759,34.9950507 C68.3717477,35.2491166 69.0320188,35.8019005 69.1906733,35.9214124 C69.969662,36.5487647 70.2075345,36.8773989 70.2075345,37.5199243 C70.2075345,37.9829594 70.0357619,38.2667885 69.6527902,38.2667885 C69.2963458,38.2667885 69.0850008,38.1024714 69.0584733,37.7588098 C69.0320188,37.4154397 69.0189008,37.0866597 69.0189008,36.952113 L69.0189008,36.952113 L66.4700796,36.952113 C66.4700796,37.1313118 66.4569617,37.699123 66.4963885,38.1920744 C66.6153247,39.76067 67.7115496,40.6719971 69.6660539,40.6719971 C71.7526124,40.6719971 72.8620281,39.461952 72.8620281,37.3554614 C72.8620281,35.6974159 72.2544476,34.9652875 71.2508502,34.1136399 C71.0658868,33.9643574 70.3526338,33.3518868 70.1150528,33.1575076 C69.4547088,32.5899952 69.0584733,32.2912772 69.0584733,31.6040924 C69.0584733,31.1857167 69.2830821,30.9764487 69.6527902,30.9764487 C70.0093803,30.9764487 70.1677433,31.1706821 70.2075345,31.4994621 C70.2207253,31.5441142 70.233989,32.2013754 70.233989,32.336075 L70.233989,32.336075 L72.7957824,32.336075 C72.7957824,32.1567233 72.7828102,31.4994621 72.7298282,31.1558005 C72.5582743,29.6918352 71.6865125,28.4517209 69.6527902,28.4517209 Z M62.1777348,28.5862748 L59.5099774,28.5862748 L59.5099774,37.2957746 C59.5099774,39.6262691 60.9362649,40.6420808 62.8247421,40.6420808 C64.7925102,40.6420808 66.0602889,39.4918682 66.0602889,37.3407256 L66.0602889,37.3407256 L66.0602889,28.5862748 L63.3794864,28.5862748 L63.3794864,37.3407256 C63.3794864,37.8335239 63.1681414,38.087444 62.7851696,38.087444 C62.3889341,38.087444 62.1777348,37.8485585 62.1777348,37.3255451 L62.1777348,37.3255451 L62.1777348,28.5862748 Z M84.3126294,28.5862748 L80.324257,28.5862748 L80.324257,40.5076799 L82.9260602,40.5076799 L82.9260602,35.9662176 L83.4675408,35.9662176 L84.4448294,40.5076799 L87.2048498,40.5076799 L85.8709711,35.2192003 C86.1482704,35.0847995 86.4125974,34.7860815 86.6237967,34.2481865 C86.7955692,33.7851514 86.9143597,33.1427718 86.9143597,32.1866468 C86.9143597,31.0213996 86.7031604,30.1399815 86.3333066,29.5721702 C85.9370711,28.9299364 85.223818,28.5862748 84.3126294,28.5862748 L84.3126294,28.5862748 Z M76.6789195,28.5862748 L73.3244365,28.5862748 L73.3244365,40.5076799 L76.9827462,40.5076799 C78.1448524,40.5076799 78.7787418,40.1192205 79.2145498,39.4021195 C79.7560304,38.5656595 79.8219846,37.3704961 79.8219846,34.2929843 L79.8211502,33.9722556 C79.808283,31.5594713 79.6449103,30.2034387 79.2145498,29.6020865 C78.7126418,28.9000201 77.9335074,28.5862748 76.6789195,28.5862748 L76.6789195,28.5862748 Z M76.5733199,31.0511482 C76.9167191,31.0511482 77.1015367,31.3052141 77.1411093,31.6188137 C77.2337367,32.3507963 77.2600455,33.8000257 77.2600455,34.2780882 C77.2600455,36.4143492 77.2467818,36.922328 77.154373,37.6991084 C77.1148004,38.012708 76.9034554,38.2368577 76.6260104,38.2368577 L76.6260104,38.2368577 L75.9790031,38.2368577 L75.9790031,31.0511482 Z M83.612713,31.26046 C83.8637763,31.26046 84.0619305,31.4546934 84.1410755,31.6935788 C84.1805023,31.8130908 84.2334843,32.186676 84.2334843,32.4853867 C84.2334843,32.7394526 84.167603,33.0980031 84.114621,33.2474386 C84.0619305,33.4264843 83.8373217,33.5311219 83.6524312,33.5311219 C83.6524312,33.5311219 82.9920873,33.5460035 82.9655599,33.5460035 L82.9655599,33.5460035 L82.9655599,31.26046 Z" id="USDR_Logo"></path>
        </g>
    </g>
</svg>